<svg version="1.2" xmlns="http://www.w3.org/2000/svg" viewBox="0 0 308 294" width="308" height="294"><style>.a{opacity:1;fill:#f36a63}</style><path fill-rule="evenodd" class="a" d="m152.5 0.1c97.6-0.1 113.8 0.1 118.8 1.4 3.1 0.8 8.1 2.7 11 4.1 2.8 1.5 7.9 5.4 11.2 8.8 3.5 3.6 7.4 8.8 9.3 12.6 1.8 3.6 3.7 8.8 4.2 11.5 0.7 3.2 1 33.3 0.5 164l-2.4 6c-1.3 3.3-3.6 7.8-5.1 10-1.5 2.2-4.9 6.1-7.6 8.7-2.7 2.6-7.1 6-9.9 7.4-2.7 1.5-7 3.2-9.5 3.8-3.1 0.8-26.1 1.1-72 0.9-66-0.2-67.6-0.1-72 1.9-2.5 1.1-8.6 5.1-13.5 8.8-4.9 3.7-12.8 9.7-17.5 13.3-4.7 3.7-8.9 7-9.5 7.5-0.6 0.4-5.5 4.1-11 8.2-5.5 4.1-10.2 7.7-10.5 8-0.3 0.4-2.5 2.1-5 3.9-2.5 1.7-5.6 3.2-7 3.1-1.4 0-3.4-0.6-4.5-1.4-1.9-1.4-2-2.8-2.6-51.1l-7.7-1.3c-4.9-0.8-10.1-2.5-14.2-4.7-3.7-1.9-8.9-5.9-12.1-9.2-3.1-3.2-7-8.5-8.6-11.8-1.7-3.3-3.6-8.4-4.2-11.2-0.8-3.7-1.1-29.7-1.1-84.8 0-73.6 0.1-79.9 1.8-85.3 1-3.1 2.9-7.7 4.4-10.2 1.4-2.5 5.2-7 8.4-10 3.3-3.1 8.5-6.8 11.7-8.3 3.1-1.5 7.4-3.1 9.5-3.6 2-0.5 53.6-0.9 116.7-1zm-55.9 65.1c-0.3 1-0.6 26.8-0.6 57.3 0 47.1 0.2 56 1.5 59 1.1 2.6 2.4 3.8 5 4.5 2.9 0.8 4.4 0.6 8.7-1.4 2.9-1.3 15.9-8.5 28.8-16.1 12.9-7.6 31.6-18.5 41.5-24.3 9.9-5.8 20.8-12.2 24.2-14.3 4.6-2.9 6.5-4.6 6.9-6.6 0.3-1.6 0.1-3.8-0.5-5-0.6-1.3-2.8-3.4-4.9-4.6-2-1.3-24.8-14.1-50.7-28.5-39.8-22.2-47.6-26.2-51.1-26.2-3 0-4.6 0.6-6.1 2.3-1.1 1.2-2.3 3-2.7 4z"/></svg>